<?xml version="1.0" encoding="UTF-8"?>
<svg xmlns="http://www.w3.org/2000/svg" viewBox="0 0 800 600">
  <!-- Neo-Brutalist Chaos Grid Design -->
  <rect width="800" height="600" fill="#FFFFFF"/>

  <!-- Chaotic grid system -->
  <!-- Row 1 -->
  <rect x="20" y="20" width="180" height="140" fill="#0066FF" stroke="#000" stroke-width="6" transform="rotate(-2 110 90)"/>
  <rect x="220" y="30" width="120" height="130" fill="#FF0099" stroke="#000" stroke-width="6" transform="rotate(3 280 95)"/>
  <rect x="360" y="25" width="200" height="135" fill="#00FF88" stroke="#000" stroke-width="6" transform="rotate(-1 460 92)"/>
  <rect x="580" y="35" width="190" height="125" fill="#FFEE00" stroke="#000" stroke-width="6" transform="rotate(2 675 97)"/>

  <!-- Row 2 -->
  <rect x="30" y="180" width="150" height="160" fill="#6600FF" stroke="#000" stroke-width="6" transform="rotate(1 105 260)"/>
  <rect x="200" y="190" width="170" height="150" fill="#FF3333" stroke="#000" stroke-width="6" transform="rotate(-3 285 265)"/>
  <rect x="390" y="185" width="140" height="155" fill="#00FFFF" stroke="#000" stroke-width="6" transform="rotate(2 460 262)"/>
  <rect x="550" y="195" width="220" height="145" fill="#FF00FF" stroke="#000" stroke-width="6" transform="rotate(-1 660 267)"/>

  <!-- Row 3 -->
  <rect x="25" y="360" width="200" height="120" fill="#FFEE00" stroke="#000" stroke-width="6" transform="rotate(-2 125 420)"/>
  <rect x="245" y="370" width="110" height="110" fill="#0066FF" stroke="#000" stroke-width="6" transform="rotate(4 300 425)"/>
  <rect x="375" y="365" width="180" height="115" fill="#FF0099" stroke="#000" stroke-width="6" transform="rotate(-3 465 422)"/>
  <rect x="575" y="375" width="195" height="105" fill="#00FF88" stroke="#000" stroke-width="6" transform="rotate(1 672 427)"/>

  <!-- Title overlay -->
  <rect x="200" y="250" width="400" height="100" fill="#000000" stroke="#FFFFFF" stroke-width="8"/>
  <text x="400" y="285" font-family="Arial Black, sans-serif" font-size="36" font-weight="900" text-anchor="middle" fill="#FFFFFF">CHAOS</text>
  <text x="400" y="325" font-family="Arial Black, sans-serif" font-size="36" font-weight="900" text-anchor="middle" fill="#00FF88">GRID</text>

  <!-- Random floating elements -->
  <rect x="50" y="500" width="60" height="60" fill="none" stroke="#FF0099" stroke-width="4" transform="rotate(45 80 530)"/>
  <circle cx="720" cy="80" r="30" fill="none" stroke="#00FF88" stroke-width="4"/>
  <rect x="680" y="480" width="80" height="80" fill="none" stroke="#0066FF" stroke-width="4" transform="rotate(30 720 520)"/>

  <!-- Grid lines (broken) -->
  <line x1="200" y1="0" x2="200" y2="250" stroke="#000" stroke-width="2" stroke-dasharray="10,5"/>
  <line x1="200" y1="350" x2="200" y2="600" stroke="#000" stroke-width="2" stroke-dasharray="10,5"/>
  <line x1="360" y1="0" x2="360" y2="200" stroke="#000" stroke-width="2" stroke-dasharray="8,6"/>
  <line x1="360" y1="400" x2="360" y2="600" stroke="#000" stroke-width="2" stroke-dasharray="8,6"/>
  <line x1="560" y1="0" x2="560" y2="150" stroke="#000" stroke-width="2" stroke-dasharray="12,4"/>
  <line x1="560" y1="450" x2="560" y2="600" stroke="#000" stroke-width="2" stroke-dasharray="12,4"/>
</svg>